<svg id="Layer_1" data-name="Layer 1" xmlns="http://www.w3.org/2000/svg" viewBox="0 0 1986.34 320.69"><defs><style>.cls-1{fill:#dcdcdc;}</style></defs><path class="cls-1" d="M783,592.41H698.13L558,452.25l-17.55-17.56L497.9,392.18H698.13V332.11H497.9L437.83,272H718.15l40.05,40V412.2l-40.05,40.05H642.86ZM437.83,392.3l59.3,60.13v140.3H477.36l-39.53-40.08Z" transform="translate(-437.83 -272.04)"/><path class="cls-1" d="M1138.94,312.13v20H878.38V592.73h-20l-40.09-40.08V312.13L858.34,272h240.51ZM938.51,392.3h200.43V592.73l-60.13-60.12V452.43H938.51Z" transform="translate(-437.83 -272.04)"/><polygon class="cls-1" points="820.97 40.09 820.97 60.13 820.97 320.69 800.92 320.69 760.84 280.61 760.84 0 780.88 0 820.97 40.09"/><path class="cls-1" d="M1638.83,312.13v2.64l-17.4,17.4H1378.27L1318.14,272h280.6ZM1438.4,532.61h200.43l-60.13,60.12H1358.23l-40.09-40.08v-2.24l111.07-111.07,46.34-47h85.75L1459.76,493.84l-38.62,38.77Z" transform="translate(-437.83 -272.04)"/><path class="cls-1" d="M1758.69,532.61h260.56l-60.13,60.12H1738.65l-40.09-40.08V312.13L1738.65,272h280.6l-60.13,60.13H1758.69Zm60.13-140.31h200.43l-60.13,60.13h-140.3Z" transform="translate(-437.83 -272.04)"/><path class="cls-1" d="M2424.17,592.41h-84.9L2199.12,452.25l-17.56-17.56-42.51-42.51h200.22V332.11H2139.05L2079,272H2359.3l40,40V412.2l-40,40.05H2284ZM2079,392.3l59.29,60.13v140.3h-19.76L2079,552.65Z" transform="translate(-437.83 -272.04)"/></svg>